<svg width="354" height="132" viewBox="0 0 354 132" fill="none" xmlns="http://www.w3.org/2000/svg">
<g clip-path="url(#clip0)">
<g clip-path="url(#clip1)">
<g filter="url(#filter0_d)">
<rect width="366" height="155" rx="20" fill="white"/>
</g>
<rect width="366" height="132" rx="20" fill="#31A05F"/>
<mask id="mask0" mask-type="alpha" maskUnits="userSpaceOnUse" x="0" y="0" width="370" height="132">
<rect width="369.119" height="132" rx="20" fill="white"/>
</mask>
<g mask="url(#mask0)">
<path fill-rule="evenodd" clip-rule="evenodd" d="M306.325 201.228C308.363 199.517 320.945 203.27 323.101 198.38C317.117 198.34 305.45 197.831 306.325 201.228ZM340.868 124.35C333.362 128.845 323.101 135.733 320.143 141.435C327.387 136.063 335.965 131.974 340.868 124.35ZM471.15 74.0467C475.755 75.627 475.707 81.691 478.055 85.4358C473.198 84.2586 466.017 78.9774 471.15 74.0467ZM406.006 119.606C409.026 118.692 415.234 119.282 414.891 124.353C411.282 126.646 406.58 123.246 406.006 119.606ZM561.947 -97.7364V-101.534C556.446 -103.245 557.318 -102.568 552.078 -99.638C548.381 -102.311 545.732 -100.269 542.209 -102.486C540.544 -98.3878 537.737 -95.3967 530.368 -96.7871C526.927 -88.9266 517.486 -83.1546 517.534 -73.0595C517.562 -67.7491 523.315 -62.4883 519.512 -57.876C503.173 -74.3886 464.495 -56.9675 444.499 -62.6198C447.032 -69.9924 450.808 -76.1704 453.38 -83.5022C457.047 -84.4399 461.442 -88.5498 458.317 -92.9927C445.064 -88.6549 445.401 -71.2426 431.671 -67.3635C426.328 -73.115 420.35 -74.7391 413.901 -80.6513C413.184 -94.5875 406.27 -101.423 401.07 -110.075C398.922 -113.65 399.737 -118.68 394.166 -118.619C393.61 -117.249 392.623 -116.3 391.204 -115.771C390.426 -110.282 393.953 -108.921 393.178 -103.43C383.021 -98.1074 365.874 -104.89 354.686 -110.075C353.486 -104.174 356.922 -102.737 356.657 -97.7364C346.354 -92.7005 339.863 -99.9973 330.012 -95.8377C324.577 -99.1502 322.515 -105.717 315.206 -107.23C308.627 -112.604 307.691 -123.409 299.417 -127.157C299.174 -120.672 302.464 -119.951 305.34 -115.771C308.615 -111.01 311.771 -102.758 315.206 -98.6828C319.693 -93.3695 325.452 -91.573 325.079 -86.3473C324.568 -79.1762 315.866 -78.7993 309.286 -74.9553C303.123 -48.6747 271.936 -56.7689 250.065 -63.5662C262.832 -57.1779 279.521 -54.5606 290.535 -46.484C283.227 -40.861 276.359 -34.8057 271.784 -26.5537C265.979 -26.9861 264.509 -31.5867 256.976 -30.3482C256.11 -25.0903 262.301 -26.6122 263.883 -23.7057C248.571 -20.3144 242.301 -33.1699 225.394 -30.3482C225.157 -31.7035 223.766 -31.9518 223.42 -33.1991C222.77 -36.6693 225.552 -36.8387 225.394 -39.8386C221.035 -42.9904 217.624 -47.4946 218.49 -53.1264C211.497 -56.2168 205.555 -60.3092 204.665 -69.2651C199.833 -70.1151 202.001 -64.2322 196.774 -65.4678C194.113 -73.3604 189.225 -68.0645 181.969 -71.1638C180.811 -69.7441 180.738 -67.2788 179.01 -66.4142C168.348 -68.751 168.293 -60.9022 162.227 -58.8224C155.523 -61.2323 152.346 -66.4405 144.463 -63.5662C144.737 -58.4543 153.758 -61.7493 155.317 -57.876C151.711 -49.0077 149.108 -39.1668 144.463 -31.3004C148.555 -28.8088 150.946 -23.2238 148.412 -17.0633C154.53 -11.6448 160.73 -5.32951 163.218 0.968231C166.823 1.59627 167.002 -1.08524 170.122 -0.930435C173.22 1.16103 176.249 3.30798 177.036 7.6165C186.646 2.64198 197.348 3.12396 207.627 0.968231C209.27 -0.29657 207.958 -4.40646 209.602 -5.67711C212.648 -5.90787 215.182 -6.63521 217.499 -7.57286C220.021 -8.78217 216.582 -12.2202 218.49 -12.3166C232.016 -10.5552 253.285 -12.4627 263.883 -3.77844C266.973 6.43349 269.22 16.5578 263.883 26.5945C262.17 27.7716 257.331 25.8701 253.027 26.5945C250.506 25.8554 251.353 21.877 248.094 21.8507C230.837 24.8711 218.951 33.0587 213.547 47.4769C214.577 52.4982 215.479 57.648 215.525 63.6098C220.23 73.0009 230.764 76.7924 237.238 84.4893C239.242 80.6482 246.678 81.2616 250.065 83.54C261.168 78.0806 272.061 72.4196 275.73 59.8154C290.517 59.83 290.997 73.6027 300.404 78.7933C297.716 92.975 293.202 105.404 289.548 118.657C296.817 113.045 299.533 101.426 301.388 88.2838C305.489 87.168 308.302 84.8107 312.245 83.54C314.739 85.8914 318.921 86.61 319.158 91.1347C319.24 94.6955 315.541 94.6137 315.206 97.7742C326.679 96.5591 345.133 95.525 343.833 112.964C349.492 114.611 347.551 108.947 351.724 109.163C361.095 115.733 363.161 142.729 357.648 151.875C351.737 144.803 352.529 133.604 340.868 134.792C329.31 135.973 327.129 151.986 334.948 161.365C345.045 164.59 354.048 170.777 359.622 159.469C370.059 168.308 363.477 189.781 353.699 195.532C349.659 196.394 345.713 197.346 344.82 201.228C345.588 201.439 345.965 202.02 345.801 203.124C349.346 205.099 356.478 203.621 361.59 204.076C364.285 208.765 368.149 212.328 368.504 219.26C365.749 222.327 357.377 224.985 359.622 229.7C362.216 224.86 372.963 223.452 378.373 226.852C378.762 230.278 379.652 233.22 380.348 236.342C387.465 238.889 393.102 245.024 402.063 242.988C404.612 245.914 403.397 252.461 406.996 254.38C412.707 254.812 410.96 248.07 416.866 248.684C419.171 251.529 415.866 259.772 421.802 259.123C425.781 257.891 423.989 251.108 426.738 248.684C434.985 246.595 439.793 248.85 447.46 248.684C448.617 250.1 448.684 252.566 450.422 253.43C451.011 251.739 447.527 249.487 450.422 248.684C454.559 248.818 454.826 252.674 460.291 251.532C460.2 247.471 458.313 244.58 460.291 241.089C479.246 240.02 481.071 222.473 490.889 212.615C502.966 210.503 511.025 217.288 518.522 216.418C515.022 214.402 509.409 214.423 507.665 210.722C509.743 208.192 514.886 207.147 512.598 203.124C506.314 202.777 504.36 206.594 500.758 208.82C497.62 206.778 491.32 207.775 489.904 204.076C488.771 196.975 493.221 195.249 495.825 191.735C495.053 187.102 491.721 184.923 491.873 179.402C492.553 175.62 499.087 177.478 498.783 172.754C498.522 168.896 492.335 170.73 489.904 168.96C488.653 162.017 490.415 161.301 490.889 154.723C484.218 152.909 478.295 150.382 479.042 141.438C471.293 140.351 464.507 138.333 465.23 129.099C463.438 126.707 458.745 127.107 457.332 124.353C458.468 124.046 460.728 120.214 458.317 119.606C456.117 125.358 444.745 121.102 441.54 118.657C437.682 119.378 437.7 123.824 432.655 123.4C432.23 121.598 430.532 121.02 430.681 118.657C437.536 114.176 451.054 116.101 458.317 112.014C458.25 101.84 453.265 91.7861 459.304 81.6443C460.294 81.6472 460.476 80.876 461.278 80.6949C462.873 82.322 465.406 83.0493 469.173 82.5936C477.809 94.4004 492.954 94.6662 504.707 102.521C498.388 91.4794 471.457 92.122 475.099 68.3565C468.644 66.8989 469.99 76.9268 465.23 74.0467C467.448 66.3731 476.096 64.8892 480.032 58.8661C503.877 52.2207 519.369 73.1324 542.209 65.5085C548.87 39.301 499.616 44.7166 497.796 25.6451C496.672 13.8412 507.735 17.475 515.563 14.2589C513.166 6.7256 501.456 12.5618 497.796 7.6165C497.359 -0.717209 505.779 -0.527328 510.627 -3.77844C509.026 -13.0323 516.735 -13.707 520.499 -19.9142C518.108 -24.8887 508.971 -23.3815 507.665 -29.3988C513.039 -36.9117 520.757 -52.9716 533.327 -44.5882C538.977 -48.961 542.862 -44.4451 547.145 -40.7909C550.665 -45.0176 554.55 -42.8093 559.979 -41.7402C566.54 -49.9366 582.433 -56.1993 576.752 -70.2115C577.083 -74.0089 580.838 -74.5083 580.701 -78.7585C573.481 -84.1478 572.642 -95.6829 561.947 -97.7364ZM463.253 280C461.257 271.798 458.207 264.603 453.384 259.12C455.288 267.413 458.666 274.284 463.253 280ZM496.809 249.633C497.04 255.028 506.79 255.528 509.64 255.329C507.92 250.971 501.93 250.72 496.809 249.633ZM155.317 235.396C151.529 228.277 142.319 233.856 141.502 239.193C140.478 245.865 148.276 247.623 148.412 253.43C161.447 257.523 160.402 242.152 166.176 236.342C165.663 234.943 164.715 233.953 164.199 232.548C159.533 231.858 157.713 233.903 155.317 235.396ZM304.353 208.82C311.309 210.038 318.596 210.941 326.063 211.668C323.092 207.237 310.164 207.366 304.353 208.82ZM503.719 170.858C508.643 177.746 516.45 173 527.404 174.653C524.618 168.519 511.347 169.404 503.719 170.858ZM279.679 172.757C275.45 172.17 275.651 175.845 271.778 175.602C267.143 174.054 266.757 168.414 264.874 164.213C260.849 163.509 261.471 167.271 256.976 166.115C254.035 164.824 252.878 161.827 251.056 159.469C242.007 161.204 239.996 156.183 235.26 153.773C233.532 155.272 233.219 158.132 230.327 158.52C220.892 154.734 219.784 166.661 209.602 162.314C206.345 173.143 197.646 179.265 184.927 178.45C184.578 184.167 191.595 182.791 192.825 186.994C194.541 195.287 189.687 197.262 188.873 203.127C192.166 208.441 194.596 216.243 195.784 225.905C200.89 225.742 201.792 229.621 203.681 232.548C208.939 231.92 212.32 233.1 213.547 236.345C214.629 241.495 211.558 242.655 211.576 246.785C216.245 244.629 219.902 241.501 226.384 241.092C230.737 244.174 233.62 248.684 243.158 246.785C243.695 243.823 245.509 242.085 248.094 241.092C251.101 242.307 250.734 246.776 255.001 246.785C258.279 244.898 253.385 236.015 259.937 235.396C264.078 235.215 262.987 240.055 267.832 239.193C268.914 234.847 268.914 233.1 267.832 228.753C274.32 224.901 275.757 233.436 279.679 231.601C279.658 227.503 274.758 228.102 274.743 224.007C279.241 218.159 273.276 206.986 279.679 202.178C284.062 200.066 298.302 205.076 304.353 200.279C284.527 205.511 268.807 188.645 279.679 172.757ZM618.206 12.3603C620.922 15.7545 629.035 14.2852 629.063 9.51227C626.818 4.57864 618.07 6.95636 618.206 12.3603ZM237.238 -65.4678C231.615 -66.7063 226.989 -68.9 221.448 -70.2144C221.688 -64.4191 233.325 -64.5768 237.238 -65.4678ZM603.401 -168.916C603.617 -172.389 604.759 -172.559 603.401 -175.562C597.927 -175.567 595.102 -180.635 589.583 -182.207C584.267 -183.72 577.496 -181.339 573.794 -186.001C572.017 -182.359 567.822 -181.415 562.937 -183.153C561.61 -175.258 551.504 -175.798 552.078 -166.071C550.362 -166.144 549.013 -165.858 548.132 -165.122C547.394 -162.201 550.839 -163.296 550.106 -160.378C549.238 -157.732 545.21 -158.123 545.173 -154.682C551.039 -152.734 551.294 -145.387 553.065 -139.498C559.016 -137.308 560.641 -130.966 566.883 -129.056C558.985 -126.211 552.351 -122.153 552.078 -111.971C573.478 -101.776 574.757 -136.426 597.481 -130.954C601.998 -140.906 612.845 -149.684 606.36 -162.274C607.596 -164.57 611.338 -164.45 611.293 -167.973C608.939 -168.545 604.139 -166.775 603.401 -168.916ZM514.576 -205.932C523.78 -203.232 531.857 -209.46 532.34 -218.273C524.399 -219.821 515.335 -215.296 513.585 -207.833C514.354 -207.623 514.734 -207.039 514.576 -205.932ZM346.788 -178.41C350.977 -177.262 355.218 -177.054 352.712 -171.764C357.745 -172.877 362.632 -169.696 366.53 -167.02C373.71 -168.688 378 -167.342 383.309 -165.125C385.518 -173.122 393.74 -175.337 400.083 -179.362C398.403 -183.936 399.566 -187.795 404.035 -188.849C405.377 -198.115 398.148 -201.819 402.063 -210.681C392.118 -212.819 389.102 -221.626 381.332 -225.865C380.548 -223.773 379.354 -222.076 376.399 -222.067C373.723 -222.66 373.941 -226.034 370.475 -225.865C369.148 -221.398 363.942 -220.172 358.635 -222.067C355.597 -215.498 350.385 -211.02 343.833 -207.833C348.969 -203.364 343.392 -196.59 340.868 -193.596C342.858 -187.339 347.627 -185.972 346.788 -178.41ZM350.737 -232.507C352.453 -240.353 338.353 -239.29 342.839 -232.507C347.211 -232.96 347.748 -231.201 350.737 -232.507Z" fill="#249957"/>
</g>
</g>
<path d="M39.8906 27.5508H35.0137V41H32.3174V27.5508H27.4834V25.3594H39.8906V27.5508ZM46.8408 41C46.7262 40.778 46.626 40.4163 46.54 39.915C45.7093 40.7816 44.6924 41.2148 43.4893 41.2148C42.3219 41.2148 41.3695 40.8818 40.6318 40.2158C39.8942 39.5498 39.5254 38.7262 39.5254 37.7451C39.5254 36.5062 39.9837 35.5573 40.9004 34.8984C41.8242 34.2324 43.1419 33.8994 44.8535 33.8994H46.4541V33.1367C46.4541 32.5352 46.2858 32.0553 45.9492 31.6973C45.6126 31.332 45.1006 31.1494 44.4131 31.1494C43.8187 31.1494 43.3317 31.2998 42.9521 31.6006C42.5726 31.8942 42.3828 32.2702 42.3828 32.7285H39.7725C39.7725 32.0911 39.9837 31.4967 40.4062 30.9453C40.8288 30.3867 41.4017 29.9499 42.125 29.6348C42.8555 29.3197 43.6683 29.1621 44.5635 29.1621C45.9242 29.1621 47.0091 29.5059 47.8184 30.1934C48.6276 30.8737 49.043 31.8333 49.0645 33.0723V38.3145C49.0645 39.36 49.2113 40.1943 49.5049 40.8174V41H46.8408ZM43.9727 39.1201C44.4883 39.1201 44.9717 38.9948 45.4229 38.7441C45.8812 38.4935 46.2249 38.1569 46.4541 37.7344V35.543H45.0469C44.0801 35.543 43.3532 35.7113 42.8662 36.0479C42.3792 36.3844 42.1357 36.8607 42.1357 37.4766C42.1357 37.9779 42.3005 38.3789 42.6299 38.6797C42.9665 38.9733 43.4141 39.1201 43.9727 39.1201ZM55.9717 33.2012L58.1846 29.377H61.085L57.5293 35.1025L61.2031 41H58.3242L56.0039 37.0254L53.6943 41H50.7939L54.4678 35.1025L50.9229 29.377H53.8018L55.9717 33.2012ZM76.7686 36.9717C76.7686 36.2842 76.5251 35.7542 76.0381 35.3818C75.5583 35.0094 74.6882 34.6335 73.4277 34.2539C72.1673 33.8743 71.1647 33.4518 70.4199 32.9863C68.9948 32.0911 68.2822 30.9238 68.2822 29.4844C68.2822 28.224 68.7943 27.1855 69.8184 26.3691C70.8496 25.5527 72.1852 25.1445 73.8252 25.1445C74.9137 25.1445 75.8841 25.3451 76.7363 25.7461C77.5885 26.1471 78.2581 26.7201 78.7451 27.4648C79.2321 28.2025 79.4756 29.0225 79.4756 29.9248H76.7686C76.7686 29.1084 76.5107 28.471 75.9951 28.0127C75.4867 27.5472 74.7562 27.3145 73.8037 27.3145C72.9157 27.3145 72.2246 27.5042 71.7305 27.8838C71.2435 28.2633 71 28.7933 71 29.4736C71 30.0465 71.265 30.5264 71.7949 30.9131C72.3249 31.2926 73.1986 31.665 74.416 32.0303C75.6335 32.3883 76.611 32.8001 77.3486 33.2656C78.0863 33.724 78.627 34.2539 78.9707 34.8555C79.3145 35.4499 79.4863 36.1481 79.4863 36.9502C79.4863 38.2536 78.985 39.292 77.9824 40.0654C76.987 40.8317 75.6335 41.2148 73.9219 41.2148C72.7904 41.2148 71.7484 41.0072 70.7959 40.5918C69.8506 40.1693 69.113 39.5892 68.583 38.8516C68.0602 38.1139 67.7988 37.2546 67.7988 36.2734H70.5166C70.5166 37.1615 70.8102 37.849 71.3975 38.3359C71.9847 38.8229 72.8262 39.0664 73.9219 39.0664C74.8672 39.0664 75.5762 38.8766 76.0488 38.4971C76.5286 38.1104 76.7686 37.6019 76.7686 36.9717ZM86.7373 41.2148C85.083 41.2148 83.7402 40.6956 82.709 39.6572C81.6849 38.6117 81.1729 37.2223 81.1729 35.4893V35.167C81.1729 34.0068 81.3949 32.972 81.8389 32.0625C82.29 31.1458 82.9202 30.4333 83.7295 29.9248C84.5387 29.4163 85.4411 29.1621 86.4365 29.1621C88.0192 29.1621 89.2402 29.667 90.0996 30.6768C90.9661 31.6865 91.3994 33.1152 91.3994 34.9629V36.0156H83.8047C83.8835 36.9753 84.2021 37.7344 84.7607 38.293C85.3265 38.8516 86.0355 39.1309 86.8877 39.1309C88.0837 39.1309 89.0576 38.6475 89.8096 37.6807L91.2168 39.0234C90.7513 39.7181 90.1283 40.2588 89.3477 40.6455C88.5742 41.0251 87.7041 41.2148 86.7373 41.2148ZM86.4258 31.2568C85.7096 31.2568 85.1296 31.5075 84.6855 32.0088C84.2487 32.5101 83.9694 33.2083 83.8477 34.1035H88.8213V33.9102C88.764 33.0365 88.5312 32.3776 88.123 31.9336C87.7148 31.4824 87.1491 31.2568 86.4258 31.2568ZM100.38 41C100.265 40.778 100.165 40.4163 100.079 39.915C99.2484 40.7816 98.2314 41.2148 97.0283 41.2148C95.861 41.2148 94.9085 40.8818 94.1709 40.2158C93.4333 39.5498 93.0645 38.7262 93.0645 37.7451C93.0645 36.5062 93.5228 35.5573 94.4395 34.8984C95.3633 34.2324 96.681 33.8994 98.3926 33.8994H99.9932V33.1367C99.9932 32.5352 99.8249 32.0553 99.4883 31.6973C99.1517 31.332 98.6396 31.1494 97.9521 31.1494C97.3577 31.1494 96.8708 31.2998 96.4912 31.6006C96.1117 31.8942 95.9219 32.2702 95.9219 32.7285H93.3115C93.3115 32.0911 93.5228 31.4967 93.9453 30.9453C94.3678 30.3867 94.9408 29.9499 95.6641 29.6348C96.3945 29.3197 97.2074 29.1621 98.1025 29.1621C99.4632 29.1621 100.548 29.5059 101.357 30.1934C102.167 30.8737 102.582 31.8333 102.604 33.0723V38.3145C102.604 39.36 102.75 40.1943 103.044 40.8174V41H100.38ZM97.5117 39.1201C98.0273 39.1201 98.5107 38.9948 98.9619 38.7441C99.4202 38.4935 99.764 38.1569 99.9932 37.7344V35.543H98.5859C97.6191 35.543 96.8923 35.7113 96.4053 36.0479C95.9183 36.3844 95.6748 36.8607 95.6748 37.4766C95.6748 37.9779 95.8395 38.3789 96.1689 38.6797C96.5055 38.9733 96.9531 39.1201 97.5117 39.1201ZM111.853 37.8418C111.853 37.3763 111.659 37.0218 111.272 36.7783C110.893 36.5348 110.259 36.32 109.371 36.1338C108.483 35.9476 107.742 35.7113 107.147 35.4248C105.844 34.7946 105.192 33.8815 105.192 32.6855C105.192 31.6829 105.615 30.8451 106.46 30.1719C107.305 29.4987 108.379 29.1621 109.683 29.1621C111.072 29.1621 112.193 29.5059 113.045 30.1934C113.904 30.8809 114.334 31.7725 114.334 32.8682H111.724C111.724 32.3669 111.537 31.9515 111.165 31.6221C110.793 31.2855 110.299 31.1172 109.683 31.1172C109.11 31.1172 108.641 31.2497 108.275 31.5146C107.917 31.7796 107.738 32.1341 107.738 32.5781C107.738 32.9792 107.907 33.2907 108.243 33.5127C108.58 33.7347 109.26 33.9603 110.284 34.1895C111.308 34.4115 112.11 34.68 112.69 34.9951C113.278 35.3031 113.711 35.6755 113.99 36.1123C114.277 36.5492 114.42 37.0791 114.42 37.7021C114.42 38.7477 113.987 39.5964 113.12 40.248C112.254 40.8926 111.118 41.2148 109.715 41.2148C108.762 41.2148 107.914 41.043 107.169 40.6992C106.424 40.3555 105.844 39.8828 105.429 39.2812C105.013 38.6797 104.806 38.0316 104.806 37.3369H107.341C107.377 37.9528 107.609 38.429 108.039 38.7656C108.469 39.0951 109.038 39.2598 109.747 39.2598C110.435 39.2598 110.957 39.1309 111.315 38.873C111.674 38.6081 111.853 38.2643 111.853 37.8418ZM116.214 35.0811C116.214 33.9424 116.439 32.9183 116.891 32.0088C117.342 31.0921 117.976 30.3903 118.792 29.9033C119.608 29.4092 120.547 29.1621 121.606 29.1621C123.175 29.1621 124.446 29.667 125.42 30.6768C126.401 31.6865 126.931 33.0257 127.01 34.6943L127.021 35.3066C127.021 36.4525 126.799 37.4766 126.354 38.3789C125.918 39.2812 125.287 39.9795 124.464 40.4736C123.647 40.9678 122.702 41.2148 121.628 41.2148C119.988 41.2148 118.674 40.6706 117.686 39.582C116.704 38.4863 116.214 37.029 116.214 35.21V35.0811ZM118.824 35.3066C118.824 36.5026 119.071 37.4408 119.565 38.1211C120.06 38.7943 120.747 39.1309 121.628 39.1309C122.509 39.1309 123.193 38.7871 123.68 38.0996C124.174 37.4121 124.421 36.4059 124.421 35.0811C124.421 33.9066 124.167 32.9756 123.658 32.2881C123.157 31.6006 122.473 31.2568 121.606 31.2568C120.754 31.2568 120.077 31.597 119.576 32.2773C119.075 32.9505 118.824 33.9603 118.824 35.3066ZM131.65 29.377L131.726 30.7197C132.585 29.6813 133.713 29.1621 135.109 29.1621C137.53 29.1621 138.762 30.5479 138.805 33.3193V41H136.194V33.4697C136.194 32.7321 136.033 32.1878 135.711 31.8369C135.396 31.4788 134.877 31.2998 134.153 31.2998C133.101 31.2998 132.316 31.776 131.801 32.7285V41H129.19V29.377H131.65ZM149.729 41H147.119V29.377H149.729V41ZM146.958 26.3584C146.958 25.9574 147.083 25.6243 147.334 25.3594C147.592 25.0944 147.957 24.9619 148.43 24.9619C148.902 24.9619 149.268 25.0944 149.525 25.3594C149.783 25.6243 149.912 25.9574 149.912 26.3584C149.912 26.7523 149.783 27.0817 149.525 27.3467C149.268 27.6045 148.902 27.7334 148.43 27.7334C147.957 27.7334 147.592 27.6045 147.334 27.3467C147.083 27.0817 146.958 26.7523 146.958 26.3584ZM159.097 37.8418C159.097 37.3763 158.903 37.0218 158.517 36.7783C158.137 36.5348 157.503 36.32 156.615 36.1338C155.727 35.9476 154.986 35.7113 154.392 35.4248C153.088 34.7946 152.437 33.8815 152.437 32.6855C152.437 31.6829 152.859 30.8451 153.704 30.1719C154.549 29.4987 155.623 29.1621 156.927 29.1621C158.316 29.1621 159.437 29.5059 160.289 30.1934C161.148 30.8809 161.578 31.7725 161.578 32.8682H158.968C158.968 32.3669 158.782 31.9515 158.409 31.6221C158.037 31.2855 157.543 31.1172 156.927 31.1172C156.354 31.1172 155.885 31.2497 155.52 31.5146C155.161 31.7796 154.982 32.1341 154.982 32.5781C154.982 32.9792 155.151 33.2907 155.487 33.5127C155.824 33.7347 156.504 33.9603 157.528 34.1895C158.552 34.4115 159.354 34.68 159.935 34.9951C160.522 35.3031 160.955 35.6755 161.234 36.1123C161.521 36.5492 161.664 37.0791 161.664 37.7021C161.664 38.7477 161.231 39.5964 160.364 40.248C159.498 40.8926 158.363 41.2148 156.959 41.2148C156.007 41.2148 155.158 41.043 154.413 40.6992C153.668 40.3555 153.088 39.8828 152.673 39.2812C152.257 38.6797 152.05 38.0316 152.05 37.3369H154.585C154.621 37.9528 154.854 38.429 155.283 38.7656C155.713 39.0951 156.282 39.2598 156.991 39.2598C157.679 39.2598 158.201 39.1309 158.56 38.873C158.918 38.6081 159.097 38.2643 159.097 37.8418ZM174.2 39.1309C174.852 39.1309 175.393 38.9411 175.822 38.5615C176.252 38.182 176.481 37.7129 176.51 37.1543H178.97C178.941 37.8776 178.715 38.5544 178.293 39.1846C177.87 39.8076 177.298 40.3018 176.574 40.667C175.851 41.0322 175.07 41.2148 174.232 41.2148C172.607 41.2148 171.318 40.6885 170.365 39.6357C169.413 38.583 168.937 37.1292 168.937 35.2744V35.0059C168.937 33.237 169.409 31.8226 170.354 30.7627C171.3 29.6956 172.589 29.1621 174.222 29.1621C175.604 29.1621 176.728 29.5667 177.595 30.376C178.468 31.1781 178.927 32.2344 178.97 33.5449H176.51C176.481 32.8789 176.252 32.3311 175.822 31.9014C175.4 31.4717 174.859 31.2568 174.2 31.2568C173.355 31.2568 172.703 31.5648 172.245 32.1807C171.787 32.7894 171.554 33.7168 171.547 34.9629V35.3818C171.547 36.6423 171.772 37.584 172.224 38.207C172.682 38.8229 173.341 39.1309 174.2 39.1309ZM180.452 35.0811C180.452 33.9424 180.678 32.9183 181.129 32.0088C181.58 31.0921 182.214 30.3903 183.03 29.9033C183.847 29.4092 184.785 29.1621 185.845 29.1621C187.413 29.1621 188.684 29.667 189.658 30.6768C190.639 31.6865 191.169 33.0257 191.248 34.6943L191.259 35.3066C191.259 36.4525 191.037 37.4766 190.593 38.3789C190.156 39.2812 189.526 39.9795 188.702 40.4736C187.886 40.9678 186.94 41.2148 185.866 41.2148C184.226 41.2148 182.912 40.6706 181.924 39.582C180.943 38.4863 180.452 37.029 180.452 35.21V35.0811ZM183.062 35.3066C183.062 36.5026 183.31 37.4408 183.804 38.1211C184.298 38.7943 184.985 39.1309 185.866 39.1309C186.747 39.1309 187.431 38.7871 187.918 38.0996C188.412 37.4121 188.659 36.4059 188.659 35.0811C188.659 33.9066 188.405 32.9756 187.896 32.2881C187.395 31.6006 186.711 31.2568 185.845 31.2568C184.993 31.2568 184.316 31.597 183.814 32.2773C183.313 32.9505 183.062 33.9603 183.062 35.3066ZM195.921 29.377L195.996 30.5908C196.812 29.6383 197.93 29.1621 199.348 29.1621C200.902 29.1621 201.965 29.7565 202.538 30.9453C203.383 29.7565 204.572 29.1621 206.104 29.1621C207.386 29.1621 208.339 29.5166 208.962 30.2256C209.592 30.9346 209.914 31.9801 209.929 33.3623V41H207.318V33.4375C207.318 32.6999 207.157 32.1592 206.835 31.8154C206.513 31.4717 205.979 31.2998 205.234 31.2998C204.64 31.2998 204.153 31.4609 203.773 31.7832C203.401 32.0983 203.14 32.5137 202.989 33.0293L203 41H200.39V33.3516C200.354 31.9837 199.656 31.2998 198.295 31.2998C197.249 31.2998 196.508 31.7259 196.071 32.5781V41H193.461V29.377H195.921ZM215.386 41H212.775V29.377H215.386V41ZM212.614 26.3584C212.614 25.9574 212.74 25.6243 212.99 25.3594C213.248 25.0944 213.613 24.9619 214.086 24.9619C214.559 24.9619 214.924 25.0944 215.182 25.3594C215.439 25.6243 215.568 25.9574 215.568 26.3584C215.568 26.7523 215.439 27.0817 215.182 27.3467C214.924 27.6045 214.559 27.7334 214.086 27.7334C213.613 27.7334 213.248 27.6045 212.99 27.3467C212.74 27.0817 212.614 26.7523 212.614 26.3584ZM220.66 29.377L220.735 30.7197C221.595 29.6813 222.723 29.1621 224.119 29.1621C226.54 29.1621 227.771 30.5479 227.814 33.3193V41H225.204V33.4697C225.204 32.7321 225.043 32.1878 224.721 31.8369C224.406 31.4788 223.886 31.2998 223.163 31.2998C222.11 31.2998 221.326 31.776 220.811 32.7285V41H218.2V29.377H220.66ZM230.027 35.1025C230.027 33.2979 230.45 31.8584 231.295 30.7842C232.147 29.7028 233.275 29.1621 234.679 29.1621C236.004 29.1621 237.046 29.624 237.805 30.5479L237.923 29.377H240.275V40.6455C240.275 42.1709 239.799 43.374 238.847 44.2549C237.901 45.1357 236.623 45.5762 235.012 45.5762C234.16 45.5762 233.325 45.3971 232.509 45.0391C231.7 44.6882 231.084 44.2262 230.661 43.6533L231.896 42.085C232.699 43.0374 233.687 43.5137 234.861 43.5137C235.728 43.5137 236.412 43.2773 236.913 42.8047C237.414 42.3392 237.665 41.6517 237.665 40.7422V39.958C236.913 40.7959 235.91 41.2148 234.657 41.2148C233.297 41.2148 232.183 40.6742 231.316 39.5928C230.457 38.5114 230.027 37.0146 230.027 35.1025ZM232.627 35.3281C232.627 36.4954 232.863 37.4157 233.336 38.0889C233.816 38.7549 234.478 39.0879 235.323 39.0879C236.376 39.0879 237.157 38.6367 237.665 37.7344V32.6211C237.171 31.7402 236.397 31.2998 235.345 31.2998C234.485 31.2998 233.816 31.64 233.336 32.3203C232.863 33.0007 232.627 34.0033 232.627 35.3281ZM255.486 39.8613C254.72 40.7637 253.632 41.2148 252.221 41.2148C250.96 41.2148 250.004 40.846 249.353 40.1084C248.708 39.3708 248.386 38.3037 248.386 36.9072V29.377H250.996V36.875C250.996 38.3503 251.608 39.0879 252.833 39.0879C254.101 39.0879 254.956 38.6331 255.4 37.7236V29.377H258.011V41H255.551L255.486 39.8613ZM270.848 35.3066C270.848 37.1042 270.439 38.54 269.623 39.6143C268.807 40.6813 267.711 41.2148 266.336 41.2148C265.061 41.2148 264.041 40.7959 263.274 39.958V45.4688H260.664V29.377H263.07L263.178 30.5586C263.944 29.6276 264.986 29.1621 266.304 29.1621C267.722 29.1621 268.832 29.6921 269.634 30.752C270.443 31.8047 270.848 33.2692 270.848 35.1455V35.3066ZM268.248 35.0811C268.248 33.9209 268.015 33.0007 267.55 32.3203C267.091 31.64 266.433 31.2998 265.573 31.2998C264.506 31.2998 263.74 31.7402 263.274 32.6211V37.7773C263.747 38.6797 264.521 39.1309 265.595 39.1309C266.425 39.1309 267.074 38.7979 267.539 38.1318C268.012 37.4587 268.248 36.4417 268.248 35.0811ZM275.832 36.3916H273.587L273.34 25.3594H276.09L275.832 36.3916ZM273.265 39.7646C273.265 39.3564 273.397 39.0199 273.662 38.7549C273.927 38.4827 274.289 38.3467 274.747 38.3467C275.205 38.3467 275.567 38.4827 275.832 38.7549C276.097 39.0199 276.229 39.3564 276.229 39.7646C276.229 40.1585 276.101 40.488 275.843 40.7529C275.585 41.0179 275.22 41.1504 274.747 41.1504C274.274 41.1504 273.909 41.0179 273.651 40.7529C273.394 40.488 273.265 40.1585 273.265 39.7646Z" fill="white"/>
<path d="M31.3799 67.2466C30.1738 66.8999 29.2949 66.4751 28.7432 65.9722C28.1963 65.4644 27.9229 64.8394 27.9229 64.0972C27.9229 63.2573 28.2573 62.564 28.9263 62.0171C29.6001 61.4653 30.4741 61.1895 31.5483 61.1895C32.2808 61.1895 32.9326 61.3311 33.5039 61.6143C34.0801 61.8975 34.5244 62.2881 34.8369 62.7861C35.1543 63.2842 35.313 63.8286 35.313 64.4194H33.8994C33.8994 63.7749 33.6943 63.2695 33.2842 62.9033C32.874 62.5322 32.2954 62.3467 31.5483 62.3467C30.855 62.3467 30.313 62.5005 29.9224 62.8081C29.5366 63.1108 29.3438 63.5332 29.3438 64.0752C29.3438 64.5098 29.5269 64.8784 29.8931 65.1812C30.2642 65.479 30.8916 65.7524 31.7754 66.0015C32.6641 66.2505 33.3574 66.5264 33.8555 66.8291C34.3584 67.127 34.7295 67.4761 34.9688 67.8765C35.2129 68.2769 35.335 68.748 35.335 69.29C35.335 70.1543 34.998 70.8477 34.3242 71.3701C33.6504 71.8877 32.7495 72.1465 31.6216 72.1465C30.8892 72.1465 30.2056 72.0073 29.5708 71.729C28.936 71.4458 28.4453 71.0601 28.0986 70.5718C27.7568 70.0835 27.5859 69.5293 27.5859 68.9092H28.9995C28.9995 69.5537 29.2363 70.064 29.71 70.4399C30.1885 70.811 30.8257 70.9966 31.6216 70.9966C32.3638 70.9966 32.9326 70.8452 33.3281 70.5425C33.7236 70.2397 33.9214 69.8271 33.9214 69.3047C33.9214 68.7822 33.7383 68.3794 33.3721 68.0962C33.0059 67.8081 32.3418 67.5249 31.3799 67.2466ZM40.1104 71.0405C40.5938 71.0405 41.0161 70.894 41.3774 70.6011C41.7388 70.3081 41.939 69.9419 41.978 69.5024H43.2598C43.2354 69.9565 43.0791 70.3887 42.791 70.7988C42.5029 71.209 42.1172 71.5361 41.6338 71.7803C41.1553 72.0244 40.6475 72.1465 40.1104 72.1465C39.0312 72.1465 38.1719 71.7876 37.5322 71.0698C36.8975 70.3472 36.5801 69.3608 36.5801 68.1108V67.8838C36.5801 67.1123 36.7217 66.4263 37.0049 65.8257C37.2881 65.2251 37.6934 64.7588 38.2207 64.4268C38.7529 64.0947 39.3804 63.9287 40.103 63.9287C40.9917 63.9287 41.729 64.1948 42.3149 64.7271C42.9058 65.2593 43.2207 65.9502 43.2598 66.7998H41.978C41.939 66.2871 41.7437 65.8672 41.3921 65.54C41.0454 65.208 40.6157 65.042 40.103 65.042C39.4146 65.042 38.8799 65.291 38.499 65.7891C38.123 66.2822 37.9351 66.9976 37.9351 67.9351V68.1914C37.9351 69.1045 38.123 69.8076 38.499 70.3008C38.875 70.7939 39.4121 71.0405 40.1104 71.0405ZM46.1382 65.0347C46.7388 64.2974 47.52 63.9287 48.4819 63.9287C50.1567 63.9287 51.0015 64.8735 51.0161 66.7632V72H49.6611V66.7559C49.6562 66.1846 49.5244 65.7622 49.2656 65.4888C49.0117 65.2153 48.6138 65.0786 48.0718 65.0786C47.6323 65.0786 47.2466 65.1958 46.9146 65.4302C46.5825 65.6646 46.3237 65.9722 46.1382 66.353V72H44.7832V60.75H46.1382V65.0347ZM56.3335 72.1465C55.2593 72.1465 54.3853 71.7949 53.7114 71.0918C53.0376 70.3838 52.7007 69.439 52.7007 68.2573V68.0083C52.7007 67.2222 52.8496 66.5215 53.1475 65.9062C53.4502 65.2861 53.8701 64.8027 54.4072 64.4561C54.9492 64.1045 55.5352 63.9287 56.165 63.9287C57.1953 63.9287 57.9961 64.2681 58.5674 64.9468C59.1387 65.6255 59.4243 66.5972 59.4243 67.8618V68.4258H54.0557C54.0752 69.207 54.3022 69.8394 54.7368 70.3228C55.1763 70.8013 55.7329 71.0405 56.4067 71.0405C56.8853 71.0405 57.2905 70.9429 57.6226 70.7476C57.9546 70.5522 58.2451 70.2935 58.4941 69.9712L59.3218 70.6157C58.6577 71.6362 57.6616 72.1465 56.3335 72.1465ZM56.165 65.042C55.6182 65.042 55.1592 65.2422 54.7881 65.6426C54.417 66.0381 54.1875 66.5947 54.0996 67.3125H58.0693V67.21C58.0303 66.5215 57.8447 65.9893 57.5127 65.6133C57.1807 65.2324 56.7314 65.042 56.165 65.042ZM60.6694 67.9717C60.6694 66.7559 60.9575 65.7793 61.5337 65.042C62.1099 64.2998 62.8643 63.9287 63.7969 63.9287C64.7246 63.9287 65.4595 64.2461 66.0015 64.8809V60.75H67.3564V72H66.1113L66.0454 71.1504C65.5034 71.8145 64.749 72.1465 63.7822 72.1465C62.8643 72.1465 62.1147 71.7705 61.5337 71.0186C60.9575 70.2666 60.6694 69.2852 60.6694 68.0742V67.9717ZM62.0244 68.1255C62.0244 69.0239 62.21 69.7271 62.5811 70.2349C62.9521 70.7427 63.4648 70.9966 64.1191 70.9966C64.9785 70.9966 65.606 70.6108 66.0015 69.8394V66.1992C65.5962 65.4521 64.9736 65.0786 64.1338 65.0786C63.4697 65.0786 62.9521 65.335 62.5811 65.8477C62.21 66.3604 62.0244 67.1196 62.0244 68.1255ZM74.3584 71.2163C73.8311 71.8364 73.0571 72.1465 72.0366 72.1465C71.1919 72.1465 70.5474 71.9023 70.103 71.4141C69.6636 70.9209 69.4414 70.1934 69.4365 69.2314V64.0752H70.7915V69.1948C70.7915 70.396 71.2798 70.9966 72.2563 70.9966C73.2915 70.9966 73.98 70.6108 74.3218 69.8394V64.0752H75.6768V72H74.3877L74.3584 71.2163ZM79.2144 72H77.8594V60.75H79.2144V72ZM84.6782 72.1465C83.604 72.1465 82.73 71.7949 82.0562 71.0918C81.3823 70.3838 81.0454 69.439 81.0454 68.2573V68.0083C81.0454 67.2222 81.1943 66.5215 81.4922 65.9062C81.7949 65.2861 82.2148 64.8027 82.752 64.4561C83.2939 64.1045 83.8799 63.9287 84.5098 63.9287C85.54 63.9287 86.3408 64.2681 86.9121 64.9468C87.4834 65.6255 87.769 66.5972 87.769 67.8618V68.4258H82.4004C82.4199 69.207 82.647 69.8394 83.0815 70.3228C83.521 70.8013 84.0776 71.0405 84.7515 71.0405C85.23 71.0405 85.6353 70.9429 85.9673 70.7476C86.2993 70.5522 86.5898 70.2935 86.8389 69.9712L87.6665 70.6157C87.0024 71.6362 86.0063 72.1465 84.6782 72.1465ZM84.5098 65.042C83.9629 65.042 83.5039 65.2422 83.1328 65.6426C82.7617 66.0381 82.5322 66.5947 82.4443 67.3125H86.4141V67.21C86.375 66.5215 86.1895 65.9893 85.8574 65.6133C85.5254 65.2324 85.0762 65.042 84.5098 65.042ZM97.957 72C97.8789 71.8438 97.8154 71.5654 97.7666 71.165C97.1367 71.8193 96.3848 72.1465 95.5107 72.1465C94.7295 72.1465 94.0874 71.9268 93.5845 71.4873C93.0864 71.043 92.8374 70.4814 92.8374 69.8027C92.8374 68.9775 93.1499 68.3379 93.7749 67.8838C94.4048 67.4248 95.2886 67.1953 96.4263 67.1953H97.7446V66.5728C97.7446 66.0991 97.603 65.7231 97.3198 65.4448C97.0366 65.1616 96.6191 65.02 96.0674 65.02C95.584 65.02 95.1787 65.1421 94.8516 65.3862C94.5244 65.6304 94.3608 65.9258 94.3608 66.2725H92.9985C92.9985 65.877 93.1377 65.4961 93.416 65.1299C93.6992 64.7588 94.0801 64.4658 94.5586 64.251C95.042 64.0361 95.5718 63.9287 96.1479 63.9287C97.061 63.9287 97.7764 64.1582 98.2939 64.6172C98.8115 65.0713 99.0801 65.6987 99.0996 66.4995V70.147C99.0996 70.8745 99.1924 71.4531 99.3779 71.8828V72H97.957ZM95.7085 70.9673C96.1333 70.9673 96.5361 70.8574 96.917 70.6377C97.2979 70.418 97.5737 70.1323 97.7446 69.7808V68.1548H96.6826C95.0225 68.1548 94.1924 68.6406 94.1924 69.6123C94.1924 70.0371 94.334 70.3691 94.6172 70.6084C94.9004 70.8477 95.2642 70.9673 95.7085 70.9673ZM108.123 71.0405C108.606 71.0405 109.029 70.894 109.39 70.6011C109.751 70.3081 109.952 69.9419 109.991 69.5024H111.272C111.248 69.9565 111.092 70.3887 110.804 70.7988C110.516 71.209 110.13 71.5361 109.646 71.7803C109.168 72.0244 108.66 72.1465 108.123 72.1465C107.044 72.1465 106.185 71.7876 105.545 71.0698C104.91 70.3472 104.593 69.3608 104.593 68.1108V67.8838C104.593 67.1123 104.734 66.4263 105.018 65.8257C105.301 65.2251 105.706 64.7588 106.233 64.4268C106.766 64.0947 107.393 63.9287 108.116 63.9287C109.004 63.9287 109.742 64.1948 110.328 64.7271C110.918 65.2593 111.233 65.9502 111.272 66.7998H109.991C109.952 66.2871 109.756 65.8672 109.405 65.54C109.058 65.208 108.628 65.042 108.116 65.042C107.427 65.042 106.893 65.291 106.512 65.7891C106.136 66.2822 105.948 66.9976 105.948 67.9351V68.1914C105.948 69.1045 106.136 69.8076 106.512 70.3008C106.888 70.7939 107.425 71.0405 108.123 71.0405ZM114.151 65.0347C114.751 64.2974 115.533 63.9287 116.495 63.9287C118.169 63.9287 119.014 64.8735 119.029 66.7632V72H117.674V66.7559C117.669 66.1846 117.537 65.7622 117.278 65.4888C117.024 65.2153 116.626 65.0786 116.084 65.0786C115.645 65.0786 115.259 65.1958 114.927 65.4302C114.595 65.6646 114.336 65.9722 114.151 66.353V72H112.796V60.75H114.151V65.0347ZM125.95 72C125.872 71.8438 125.809 71.5654 125.76 71.165C125.13 71.8193 124.378 72.1465 123.504 72.1465C122.723 72.1465 122.081 71.9268 121.578 71.4873C121.08 71.043 120.831 70.4814 120.831 69.8027C120.831 68.9775 121.143 68.3379 121.768 67.8838C122.398 67.4248 123.282 67.1953 124.419 67.1953H125.738V66.5728C125.738 66.0991 125.596 65.7231 125.313 65.4448C125.03 65.1616 124.612 65.02 124.061 65.02C123.577 65.02 123.172 65.1421 122.845 65.3862C122.518 65.6304 122.354 65.9258 122.354 66.2725H120.992C120.992 65.877 121.131 65.4961 121.409 65.1299C121.692 64.7588 122.073 64.4658 122.552 64.251C123.035 64.0361 123.565 63.9287 124.141 63.9287C125.054 63.9287 125.77 64.1582 126.287 64.6172C126.805 65.0713 127.073 65.6987 127.093 66.4995V70.147C127.093 70.8745 127.186 71.4531 127.371 71.8828V72H125.95ZM123.702 70.9673C124.126 70.9673 124.529 70.8574 124.91 70.6377C125.291 70.418 125.567 70.1323 125.738 69.7808V68.1548H124.676C123.016 68.1548 122.186 68.6406 122.186 69.6123C122.186 70.0371 122.327 70.3691 122.61 70.6084C122.894 70.8477 123.257 70.9673 123.702 70.9673ZM131.055 62.1562V64.0752H132.535V65.1226H131.055V70.0371C131.055 70.3545 131.121 70.5938 131.253 70.7549C131.385 70.9111 131.609 70.9893 131.927 70.9893C132.083 70.9893 132.298 70.96 132.571 70.9014V72C132.215 72.0977 131.868 72.1465 131.531 72.1465C130.926 72.1465 130.469 71.9634 130.162 71.5972C129.854 71.231 129.7 70.7109 129.7 70.0371V65.1226H128.257V64.0752H129.7V62.1562H131.055ZM144.861 70.1323L146.385 64.0752H147.74L145.433 72H144.334L142.408 65.9941L140.533 72H139.434L137.134 64.0752H138.482L140.042 70.0078L141.888 64.0752H142.979L144.861 70.1323ZM150.596 72H149.241V64.0752H150.596V72ZM149.131 61.9731C149.131 61.7534 149.197 61.5679 149.329 61.4165C149.466 61.2651 149.666 61.1895 149.93 61.1895C150.193 61.1895 150.394 61.2651 150.53 61.4165C150.667 61.5679 150.735 61.7534 150.735 61.9731C150.735 62.1929 150.667 62.376 150.53 62.5225C150.394 62.6689 150.193 62.7422 149.93 62.7422C149.666 62.7422 149.466 62.6689 149.329 62.5225C149.197 62.376 149.131 62.1929 149.131 61.9731ZM154.61 62.1562V64.0752H156.089V65.1226H154.61V70.0371C154.61 70.3545 154.676 70.5938 154.808 70.7549C154.939 70.9111 155.164 70.9893 155.481 70.9893C155.638 70.9893 155.853 70.96 156.126 70.9014V72C155.77 72.0977 155.423 72.1465 155.086 72.1465C154.48 72.1465 154.024 71.9634 153.716 71.5972C153.409 71.231 153.255 70.7109 153.255 70.0371V65.1226H151.812V64.0752H153.255V62.1562H154.61ZM159.034 65.0347C159.634 64.2974 160.416 63.9287 161.377 63.9287C163.052 63.9287 163.897 64.8735 163.912 66.7632V72H162.557V66.7559C162.552 66.1846 162.42 65.7622 162.161 65.4888C161.907 65.2153 161.509 65.0786 160.967 65.0786C160.528 65.0786 160.142 65.1958 159.81 65.4302C159.478 65.6646 159.219 65.9722 159.034 66.353V72H157.679V60.75H159.034V65.0347ZM172.254 70.0151L174.1 64.0752H175.55L172.364 73.2231C171.871 74.5415 171.087 75.2007 170.013 75.2007L169.756 75.1787L169.251 75.0835V73.9849L169.617 74.0142C170.076 74.0142 170.433 73.9214 170.687 73.7358C170.945 73.5503 171.158 73.2109 171.324 72.7178L171.624 71.9121L168.797 64.0752H170.276L172.254 70.0151ZM176.29 67.9644C176.29 67.188 176.441 66.4897 176.744 65.8696C177.051 65.2495 177.476 64.771 178.018 64.4341C178.565 64.0972 179.188 63.9287 179.886 63.9287C180.965 63.9287 181.836 64.3022 182.5 65.0493C183.169 65.7964 183.504 66.79 183.504 68.0303V68.1255C183.504 68.897 183.355 69.5903 183.057 70.2056C182.764 70.8159 182.342 71.292 181.79 71.6338C181.243 71.9756 180.613 72.1465 179.9 72.1465C178.826 72.1465 177.955 71.7729 177.286 71.0259C176.622 70.2788 176.29 69.29 176.29 68.0596V67.9644ZM177.652 68.1255C177.652 69.0044 177.854 69.71 178.26 70.2422C178.67 70.7744 179.217 71.0405 179.9 71.0405C180.589 71.0405 181.136 70.772 181.541 70.2349C181.946 69.6929 182.149 68.936 182.149 67.9644C182.149 67.0952 181.941 66.3921 181.526 65.855C181.116 65.313 180.569 65.042 179.886 65.042C179.217 65.042 178.677 65.3081 178.267 65.8403C177.857 66.3726 177.652 67.1343 177.652 68.1255ZM190.096 71.2163C189.568 71.8364 188.794 72.1465 187.774 72.1465C186.929 72.1465 186.285 71.9023 185.84 71.4141C185.401 70.9209 185.179 70.1934 185.174 69.2314V64.0752H186.529V69.1948C186.529 70.396 187.017 70.9966 187.994 70.9966C189.029 70.9966 189.717 70.6108 190.059 69.8394V64.0752H191.414V72H190.125L190.096 71.2163ZM197.31 65.291C197.105 65.2568 196.883 65.2397 196.644 65.2397C195.755 65.2397 195.152 65.6182 194.834 66.375V72H193.479V64.0752H194.798L194.82 64.9907C195.264 64.2827 195.894 63.9287 196.709 63.9287C196.973 63.9287 197.173 63.9629 197.31 64.0312V65.291ZM36.082 86.6162C35.9502 87.7441 35.5327 88.6157 34.8296 89.231C34.1313 89.8413 33.2012 90.1465 32.0391 90.1465C30.7793 90.1465 29.7686 89.6948 29.0068 88.7915C28.25 87.8882 27.8716 86.6797 27.8716 85.166V84.1406C27.8716 83.1494 28.0474 82.2778 28.3989 81.5259C28.7554 80.7739 29.2583 80.1978 29.9077 79.7974C30.5571 79.3921 31.3091 79.1895 32.1636 79.1895C33.2964 79.1895 34.2046 79.5068 34.8882 80.1416C35.5718 80.7715 35.9697 81.6455 36.082 82.7637H34.6685C34.5464 81.9141 34.2803 81.2988 33.8701 80.918C33.4648 80.5371 32.896 80.3467 32.1636 80.3467C31.2651 80.3467 30.5596 80.6787 30.0469 81.3428C29.5391 82.0068 29.2852 82.9517 29.2852 84.1772V85.21C29.2852 86.3672 29.5269 87.2876 30.0103 87.9712C30.4937 88.6548 31.1699 88.9966 32.0391 88.9966C32.8203 88.9966 33.4185 88.8208 33.8335 88.4692C34.2534 88.1128 34.5317 87.4951 34.6685 86.6162H36.082ZM43.8896 85.2905H39.4146V90H38.0083V79.3359H44.6147V80.4932H39.4146V84.1406H43.8896V85.2905ZM47.7056 85.8252V90H46.2993V79.3359H50.2324C51.3994 79.3359 52.3125 79.6338 52.9717 80.2295C53.6357 80.8252 53.9678 81.6138 53.9678 82.5952C53.9678 83.6304 53.6431 84.4287 52.9937 84.9902C52.3491 85.5469 51.4238 85.8252 50.2178 85.8252H47.7056ZM47.7056 84.6753H50.2324C50.9844 84.6753 51.5605 84.4995 51.9609 84.1479C52.3613 83.7915 52.5615 83.2788 52.5615 82.6099C52.5615 81.9751 52.3613 81.4673 51.9609 81.0864C51.5605 80.7056 51.0112 80.5078 50.313 80.4932H47.7056V84.6753ZM60.5522 82.0752L60.5962 83.0713C61.2017 82.3096 61.9927 81.9287 62.9692 81.9287C64.644 81.9287 65.4888 82.8735 65.5034 84.7632V90H64.1484V84.7559C64.1436 84.1846 64.0117 83.7622 63.7529 83.4888C63.499 83.2153 63.1011 83.0786 62.5591 83.0786C62.1196 83.0786 61.7339 83.1958 61.4019 83.4302C61.0698 83.6646 60.811 83.9722 60.6255 84.353V90H59.2705V82.0752H60.5522ZM67.188 85.9644C67.188 85.188 67.3394 84.4897 67.6421 83.8696C67.9497 83.2495 68.3745 82.771 68.9165 82.4341C69.4634 82.0972 70.0859 81.9287 70.7842 81.9287C71.8633 81.9287 72.7349 82.3022 73.3989 83.0493C74.0679 83.7964 74.4023 84.79 74.4023 86.0303V86.1255C74.4023 86.897 74.2534 87.5903 73.9556 88.2056C73.6626 88.8159 73.2402 89.292 72.6885 89.6338C72.1416 89.9756 71.5117 90.1465 70.7988 90.1465C69.7246 90.1465 68.853 89.7729 68.1841 89.0259C67.52 88.2788 67.188 87.29 67.188 86.0596V85.9644ZM68.5503 86.1255C68.5503 87.0044 68.7529 87.71 69.1582 88.2422C69.5684 88.7744 70.1152 89.0405 70.7988 89.0405C71.4873 89.0405 72.0342 88.772 72.4395 88.2349C72.8447 87.6929 73.0474 86.936 73.0474 85.9644C73.0474 85.0952 72.8398 84.3921 72.4248 83.855C72.0146 83.313 71.4678 83.042 70.7842 83.042C70.1152 83.042 69.5757 83.3081 69.1655 83.8403C68.7554 84.3726 68.5503 85.1343 68.5503 86.1255ZM83.1182 88.1323L84.6416 82.0752H85.9966L83.6895 90H82.5908L80.6646 83.9941L78.7896 90H77.6909L75.3911 82.0752H76.7388L78.2988 88.0078L80.1445 82.0752H81.2358L83.1182 88.1323ZM92.9399 80.1562V82.0752H94.4194V83.1226H92.9399V88.0371C92.9399 88.3545 93.0059 88.5938 93.1377 88.7549C93.2695 88.9111 93.4941 88.9893 93.8115 88.9893C93.9678 88.9893 94.1826 88.96 94.4561 88.9014V90C94.0996 90.0977 93.7529 90.1465 93.416 90.1465C92.8105 90.1465 92.354 89.9634 92.0464 89.5972C91.7388 89.231 91.585 88.7109 91.585 88.0371V83.1226H90.1421V82.0752H91.585V80.1562H92.9399ZM95.5034 85.9644C95.5034 85.188 95.6548 84.4897 95.9575 83.8696C96.2651 83.2495 96.6899 82.771 97.2319 82.4341C97.7788 82.0972 98.4014 81.9287 99.0996 81.9287C100.179 81.9287 101.05 82.3022 101.714 83.0493C102.383 83.7964 102.718 84.79 102.718 86.0303V86.1255C102.718 86.897 102.569 87.5903 102.271 88.2056C101.978 88.8159 101.556 89.292 101.004 89.6338C100.457 89.9756 99.8271 90.1465 99.1143 90.1465C98.04 90.1465 97.1685 89.7729 96.4995 89.0259C95.8354 88.2788 95.5034 87.29 95.5034 86.0596V85.9644ZM96.8657 86.1255C96.8657 87.0044 97.0684 87.71 97.4736 88.2422C97.8838 88.7744 98.4307 89.0405 99.1143 89.0405C99.8027 89.0405 100.35 88.772 100.755 88.2349C101.16 87.6929 101.363 86.936 101.363 85.9644C101.363 85.0952 101.155 84.3921 100.74 83.855C100.33 83.313 99.7832 83.042 99.0996 83.042C98.4307 83.042 97.8911 83.3081 97.481 83.8403C97.0708 84.3726 96.8657 85.1343 96.8657 86.1255ZM114.832 86.1255C114.832 87.3315 114.556 88.3032 114.004 89.0405C113.453 89.7778 112.706 90.1465 111.763 90.1465C110.801 90.1465 110.044 89.8413 109.493 89.231V93.0469H108.138V82.0752H109.375L109.441 82.9541C109.993 82.2705 110.76 81.9287 111.741 81.9287C112.693 81.9287 113.445 82.2876 113.997 83.0054C114.554 83.7231 114.832 84.7217 114.832 86.001V86.1255ZM113.477 85.9717C113.477 85.0781 113.287 84.3726 112.906 83.855C112.525 83.3374 112.002 83.0786 111.338 83.0786C110.518 83.0786 109.903 83.4424 109.493 84.1699V87.9565C109.898 88.6792 110.518 89.0405 111.353 89.0405C112.002 89.0405 112.518 88.7842 112.898 88.2715C113.284 87.7539 113.477 86.9873 113.477 85.9717ZM118.033 90H116.678V78.75H118.033V90ZM125.101 90C125.022 89.8438 124.959 89.5654 124.91 89.165C124.28 89.8193 123.528 90.1465 122.654 90.1465C121.873 90.1465 121.231 89.9268 120.728 89.4873C120.23 89.043 119.981 88.4814 119.981 87.8027C119.981 86.9775 120.293 86.3379 120.918 85.8838C121.548 85.4248 122.432 85.1953 123.57 85.1953H124.888V84.5728C124.888 84.0991 124.747 83.7231 124.463 83.4448C124.18 83.1616 123.763 83.02 123.211 83.02C122.728 83.02 122.322 83.1421 121.995 83.3862C121.668 83.6304 121.504 83.9258 121.504 84.2725H120.142C120.142 83.877 120.281 83.4961 120.56 83.1299C120.843 82.7588 121.224 82.4658 121.702 82.251C122.186 82.0361 122.715 81.9287 123.292 81.9287C124.205 81.9287 124.92 82.1582 125.438 82.6172C125.955 83.0713 126.224 83.6987 126.243 84.4995V88.147C126.243 88.8745 126.336 89.4531 126.521 89.8828V90H125.101ZM122.852 88.9673C123.277 88.9673 123.68 88.8574 124.061 88.6377C124.441 88.418 124.717 88.1323 124.888 87.7808V86.1548H123.826C122.166 86.1548 121.336 86.6406 121.336 87.6123C121.336 88.0371 121.478 88.3691 121.761 88.6084C122.044 88.8477 122.408 88.9673 122.852 88.9673ZM129.649 82.0752L129.693 83.0713C130.298 82.3096 131.089 81.9287 132.066 81.9287C133.741 81.9287 134.585 82.8735 134.6 84.7632V90H133.245V84.7559C133.24 84.1846 133.108 83.7622 132.85 83.4888C132.596 83.2153 132.198 83.0786 131.656 83.0786C131.216 83.0786 130.831 83.1958 130.499 83.4302C130.167 83.6646 129.908 83.9722 129.722 84.353V90H128.367V82.0752H129.649ZM142.957 88.0151L144.803 82.0752H146.253L143.067 91.2231C142.574 92.5415 141.79 93.2007 140.716 93.2007L140.459 93.1787L139.954 93.0835V91.9849L140.32 92.0142C140.779 92.0142 141.136 91.9214 141.39 91.7358C141.648 91.5503 141.861 91.2109 142.027 90.7178L142.327 89.9121L139.5 82.0752H140.979L142.957 88.0151ZM146.993 85.9644C146.993 85.188 147.144 84.4897 147.447 83.8696C147.754 83.2495 148.179 82.771 148.721 82.4341C149.268 82.0972 149.891 81.9287 150.589 81.9287C151.668 81.9287 152.54 82.3022 153.204 83.0493C153.873 83.7964 154.207 84.79 154.207 86.0303V86.1255C154.207 86.897 154.058 87.5903 153.76 88.2056C153.467 88.8159 153.045 89.292 152.493 89.6338C151.946 89.9756 151.316 90.1465 150.604 90.1465C149.529 90.1465 148.658 89.7729 147.989 89.0259C147.325 88.2788 146.993 87.29 146.993 86.0596V85.9644ZM148.355 86.1255C148.355 87.0044 148.558 87.71 148.963 88.2422C149.373 88.7744 149.92 89.0405 150.604 89.0405C151.292 89.0405 151.839 88.772 152.244 88.2349C152.649 87.6929 152.852 86.936 152.852 85.9644C152.852 85.0952 152.645 84.3921 152.229 83.855C151.819 83.313 151.272 83.042 150.589 83.042C149.92 83.042 149.38 83.3081 148.97 83.8403C148.56 84.3726 148.355 85.1343 148.355 86.1255ZM160.799 89.2163C160.271 89.8364 159.498 90.1465 158.477 90.1465C157.632 90.1465 156.988 89.9023 156.543 89.4141C156.104 88.9209 155.882 88.1934 155.877 87.2314V82.0752H157.232V87.1948C157.232 88.396 157.72 88.9966 158.697 88.9966C159.732 88.9966 160.42 88.6108 160.762 87.8394V82.0752H162.117V90H160.828L160.799 89.2163ZM168.013 83.291C167.808 83.2568 167.586 83.2397 167.347 83.2397C166.458 83.2397 165.855 83.6182 165.538 84.375V90H164.183V82.0752H165.501L165.523 82.9907C165.967 82.2827 166.597 81.9287 167.413 81.9287C167.676 81.9287 167.876 81.9629 168.013 82.0312V83.291ZM174.825 80.1562V82.0752H176.304V83.1226H174.825V88.0371C174.825 88.3545 174.891 88.5938 175.022 88.7549C175.154 88.9111 175.379 88.9893 175.696 88.9893C175.853 88.9893 176.067 88.96 176.341 88.9014V90C175.984 90.0977 175.638 90.1465 175.301 90.1465C174.695 90.1465 174.239 89.9634 173.931 89.5972C173.624 89.231 173.47 88.7109 173.47 88.0371V83.1226H172.027V82.0752H173.47V80.1562H174.825ZM182.786 90C182.708 89.8438 182.645 89.5654 182.596 89.165C181.966 89.8193 181.214 90.1465 180.34 90.1465C179.559 90.1465 178.917 89.9268 178.414 89.4873C177.916 89.043 177.667 88.4814 177.667 87.8027C177.667 86.9775 177.979 86.3379 178.604 85.8838C179.234 85.4248 180.118 85.1953 181.255 85.1953H182.574V84.5728C182.574 84.0991 182.432 83.7231 182.149 83.4448C181.866 83.1616 181.448 83.02 180.896 83.02C180.413 83.02 180.008 83.1421 179.681 83.3862C179.354 83.6304 179.19 83.9258 179.19 84.2725H177.828C177.828 83.877 177.967 83.4961 178.245 83.1299C178.528 82.7588 178.909 82.4658 179.388 82.251C179.871 82.0361 180.401 81.9287 180.977 81.9287C181.89 81.9287 182.605 82.1582 183.123 82.6172C183.641 83.0713 183.909 83.6987 183.929 84.4995V88.147C183.929 88.8745 184.021 89.4531 184.207 89.8828V90H182.786ZM180.538 88.9673C180.962 88.9673 181.365 88.8574 181.746 88.6377C182.127 88.418 182.403 88.1323 182.574 87.7808V86.1548H181.512C179.852 86.1548 179.021 86.6406 179.021 87.6123C179.021 88.0371 179.163 88.3691 179.446 88.6084C179.729 88.8477 180.093 88.9673 180.538 88.9673ZM188.711 84.9683L190.469 82.0752H192.051L189.458 85.9937L192.132 90H190.564L188.733 87.0337L186.902 90H185.328L188.001 85.9937L185.408 82.0752H186.976L188.711 84.9683ZM32.6396 105.898C32.6396 105.532 32.5005 105.249 32.2222 105.048C31.9487 104.843 31.4678 104.667 30.7793 104.521C30.0957 104.375 29.5513 104.199 29.146 103.994C28.7456 103.789 28.4478 103.544 28.2524 103.261C28.062 102.978 27.9668 102.641 27.9668 102.25C27.9668 101.601 28.2402 101.052 28.7871 100.603C29.3389 100.153 30.042 99.9287 30.8965 99.9287C31.7949 99.9287 32.5225 100.161 33.0791 100.625C33.6406 101.088 33.9214 101.682 33.9214 102.404H32.5591C32.5591 102.033 32.4004 101.713 32.083 101.445C31.7705 101.176 31.375 101.042 30.8965 101.042C30.4033 101.042 30.0176 101.149 29.7393 101.364C29.4609 101.579 29.3218 101.86 29.3218 102.207C29.3218 102.534 29.4512 102.78 29.71 102.946C29.9688 103.112 30.4351 103.271 31.1089 103.422C31.7876 103.574 32.3369 103.754 32.7568 103.964C33.1768 104.174 33.4868 104.428 33.687 104.726C33.8921 105.019 33.9946 105.378 33.9946 105.803C33.9946 106.511 33.7114 107.08 33.145 107.509C32.5786 107.934 31.8438 108.146 30.9404 108.146C30.3057 108.146 29.7441 108.034 29.2559 107.81C28.7676 107.585 28.3843 107.272 28.106 106.872C27.8325 106.467 27.6958 106.03 27.6958 105.561H29.0508C29.0752 106.015 29.2559 106.376 29.5928 106.645C29.9346 106.909 30.3838 107.041 30.9404 107.041C31.4531 107.041 31.8633 106.938 32.1709 106.733C32.4834 106.523 32.6396 106.245 32.6396 105.898ZM37.5981 98.1562V100.075H39.0776V101.123H37.5981V106.037C37.5981 106.354 37.6641 106.594 37.7959 106.755C37.9277 106.911 38.1523 106.989 38.4697 106.989C38.626 106.989 38.8408 106.96 39.1143 106.901V108C38.7578 108.098 38.4111 108.146 38.0742 108.146C37.4688 108.146 37.0122 107.963 36.7046 107.597C36.397 107.231 36.2432 106.711 36.2432 106.037V101.123H34.8003V100.075H36.2432V98.1562H37.5981ZM44.4976 101.291C44.2925 101.257 44.0703 101.24 43.8311 101.24C42.9424 101.24 42.3394 101.618 42.022 102.375V108H40.667V100.075H41.9854L42.0073 100.991C42.4517 100.283 43.0815 99.9287 43.897 99.9287C44.1606 99.9287 44.3608 99.9629 44.4976 100.031V101.291ZM50.3496 108C50.2715 107.844 50.208 107.565 50.1592 107.165C49.5293 107.819 48.7773 108.146 47.9033 108.146C47.1221 108.146 46.48 107.927 45.9771 107.487C45.479 107.043 45.23 106.481 45.23 105.803C45.23 104.978 45.5425 104.338 46.1675 103.884C46.7974 103.425 47.6812 103.195 48.8188 103.195H50.1372V102.573C50.1372 102.099 49.9956 101.723 49.7124 101.445C49.4292 101.162 49.0117 101.02 48.46 101.02C47.9766 101.02 47.5713 101.142 47.2441 101.386C46.917 101.63 46.7534 101.926 46.7534 102.272H45.3911C45.3911 101.877 45.5303 101.496 45.8086 101.13C46.0918 100.759 46.4727 100.466 46.9512 100.251C47.4346 100.036 47.9644 99.9287 48.5405 99.9287C49.4536 99.9287 50.1689 100.158 50.6865 100.617C51.2041 101.071 51.4727 101.699 51.4922 102.5V106.147C51.4922 106.875 51.585 107.453 51.7705 107.883V108H50.3496ZM48.1011 106.967C48.5259 106.967 48.9287 106.857 49.3096 106.638C49.6904 106.418 49.9663 106.132 50.1372 105.781V104.155H49.0752C47.415 104.155 46.585 104.641 46.585 105.612C46.585 106.037 46.7266 106.369 47.0098 106.608C47.293 106.848 47.6567 106.967 48.1011 106.967ZM55.4546 98.1562V100.075H56.9341V101.123H55.4546V106.037C55.4546 106.354 55.5205 106.594 55.6523 106.755C55.7842 106.911 56.0088 106.989 56.3262 106.989C56.4824 106.989 56.6973 106.96 56.9707 106.901V108C56.6143 108.098 56.2676 108.146 55.9307 108.146C55.3252 108.146 54.8687 107.963 54.561 107.597C54.2534 107.231 54.0996 106.711 54.0996 106.037V101.123H52.6567V100.075H54.0996V98.1562H55.4546ZM61.812 108.146C60.7378 108.146 59.8638 107.795 59.1899 107.092C58.5161 106.384 58.1792 105.439 58.1792 104.257V104.008C58.1792 103.222 58.3281 102.521 58.626 101.906C58.9287 101.286 59.3486 100.803 59.8857 100.456C60.4277 100.104 61.0137 99.9287 61.6436 99.9287C62.6738 99.9287 63.4746 100.268 64.0459 100.947C64.6172 101.625 64.9028 102.597 64.9028 103.862V104.426H59.5342C59.5537 105.207 59.7808 105.839 60.2153 106.323C60.6548 106.801 61.2114 107.041 61.8853 107.041C62.3638 107.041 62.769 106.943 63.1011 106.748C63.4331 106.552 63.7236 106.293 63.9727 105.971L64.8003 106.616C64.1362 107.636 63.1401 108.146 61.812 108.146ZM61.6436 101.042C61.0967 101.042 60.6377 101.242 60.2666 101.643C59.8955 102.038 59.666 102.595 59.5781 103.312H63.5479V103.21C63.5088 102.521 63.3232 101.989 62.9912 101.613C62.6592 101.232 62.21 101.042 61.6436 101.042ZM66.1553 103.972C66.1553 102.736 66.4409 101.755 67.0122 101.027C67.5835 100.295 68.3403 99.9287 69.2827 99.9287C70.2495 99.9287 71.0039 100.271 71.5459 100.954L71.6118 100.075H72.8496V107.81C72.8496 108.835 72.5444 109.643 71.9341 110.234C71.3286 110.825 70.5132 111.12 69.4878 111.12C68.9165 111.12 68.3574 110.998 67.8105 110.754C67.2637 110.51 66.8462 110.175 66.5581 109.75L67.2612 108.938C67.8423 109.655 68.5527 110.014 69.3926 110.014C70.0518 110.014 70.5645 109.829 70.9307 109.458C71.3018 109.086 71.4873 108.564 71.4873 107.89V107.209C70.9453 107.834 70.2056 108.146 69.2681 108.146C68.3403 108.146 67.5884 107.773 67.0122 107.026C66.4409 106.279 66.1553 105.261 66.1553 103.972ZM67.5176 104.125C67.5176 105.019 67.7007 105.722 68.0669 106.235C68.4331 106.743 68.9458 106.997 69.605 106.997C70.4595 106.997 71.0869 106.608 71.4873 105.832V102.214C71.0723 101.457 70.4497 101.079 69.6196 101.079C68.9604 101.079 68.4453 101.335 68.0742 101.848C67.7031 102.36 67.5176 103.12 67.5176 104.125ZM77.4932 106.015L79.3389 100.075H80.7891L77.603 109.223C77.1099 110.542 76.3262 111.201 75.252 111.201L74.9956 111.179L74.4902 111.083V109.985L74.8564 110.014C75.3154 110.014 75.6719 109.921 75.9258 109.736C76.1846 109.55 76.397 109.211 76.563 108.718L76.8633 107.912L74.0361 100.075H75.5156L77.4932 106.015Z" fill="white"/>
<rect x="245" y="70" width="93" height="40" rx="20" fill="#FEFFFE"/>
<path d="M268.05 92.3887C268.05 92.0013 267.913 91.7051 267.64 91.5C267.366 91.2904 266.874 91.0716 266.163 90.8438C265.452 90.6113 264.889 90.3835 264.475 90.1602C263.344 89.5495 262.779 88.7269 262.779 87.6924C262.779 87.1546 262.93 86.6761 263.23 86.2568C263.536 85.833 263.971 85.5026 264.536 85.2656C265.106 85.0286 265.744 84.9102 266.45 84.9102C267.161 84.9102 267.795 85.04 268.351 85.2998C268.907 85.555 269.337 85.9173 269.643 86.3867C269.952 86.8561 270.107 87.3893 270.107 87.9863H268.057C268.057 87.5306 267.913 87.1774 267.626 86.9268C267.339 86.6715 266.936 86.5439 266.416 86.5439C265.915 86.5439 265.525 86.651 265.247 86.8652C264.969 87.0749 264.83 87.3529 264.83 87.6992C264.83 88.0228 264.992 88.2939 265.315 88.5127C265.644 88.7314 266.124 88.9365 266.758 89.1279C267.924 89.4788 268.774 89.9141 269.308 90.4336C269.841 90.9531 270.107 91.6003 270.107 92.375C270.107 93.2363 269.782 93.9131 269.13 94.4053C268.478 94.8929 267.601 95.1367 266.498 95.1367C265.732 95.1367 265.035 94.9977 264.406 94.7197C263.777 94.4372 263.297 94.0521 262.964 93.5645C262.636 93.0768 262.472 92.5117 262.472 91.8691H264.529C264.529 92.9674 265.186 93.5166 266.498 93.5166C266.986 93.5166 267.366 93.4186 267.64 93.2227C267.913 93.0221 268.05 92.7441 268.05 92.3887ZM274.448 93.5439C274.813 93.5439 275.109 93.4437 275.337 93.2432C275.565 93.0426 275.683 92.776 275.692 92.4434H277.545C277.54 92.9447 277.404 93.4049 277.135 93.8242C276.866 94.2389 276.497 94.5625 276.027 94.7949C275.562 95.0228 275.048 95.1367 274.482 95.1367C273.425 95.1367 272.591 94.8018 271.98 94.1318C271.37 93.4574 271.064 92.5277 271.064 91.3428V91.2129C271.064 90.0736 271.368 89.1644 271.974 88.4854C272.58 87.8063 273.411 87.4668 274.469 87.4668C275.394 87.4668 276.134 87.7311 276.69 88.2598C277.251 88.7839 277.536 89.4834 277.545 90.3584H275.692C275.683 89.9756 275.565 89.6657 275.337 89.4287C275.109 89.1872 274.808 89.0664 274.435 89.0664C273.974 89.0664 273.626 89.235 273.389 89.5723C273.156 89.9049 273.04 90.4473 273.04 91.1992V91.4043C273.04 92.1654 273.156 92.7122 273.389 93.0449C273.621 93.3776 273.974 93.5439 274.448 93.5439ZM280.601 88.4102C281.125 87.7812 281.783 87.4668 282.576 87.4668C284.18 87.4668 284.994 88.3988 285.017 90.2627V95H283.041V90.3174C283.041 89.8936 282.95 89.5814 282.768 89.3809C282.585 89.1758 282.282 89.0732 281.858 89.0732C281.28 89.0732 280.86 89.2965 280.601 89.7432V95H278.625V84.5H280.601V88.4102ZM289.911 95.1367C288.826 95.1367 287.942 94.804 287.259 94.1387C286.58 93.4733 286.24 92.5869 286.24 91.4795V91.2881C286.24 90.5452 286.384 89.8822 286.671 89.2988C286.958 88.7109 287.364 88.2598 287.888 87.9453C288.416 87.6263 289.018 87.4668 289.692 87.4668C290.704 87.4668 291.499 87.7858 292.078 88.4238C292.661 89.0618 292.953 89.9665 292.953 91.1377V91.9443H288.243C288.307 92.4274 288.498 92.8148 288.817 93.1064C289.141 93.3981 289.549 93.5439 290.041 93.5439C290.802 93.5439 291.397 93.2682 291.825 92.7168L292.796 93.8037C292.5 94.223 292.099 94.5511 291.593 94.7881C291.087 95.0205 290.526 95.1367 289.911 95.1367ZM289.686 89.0664C289.294 89.0664 288.975 89.1986 288.729 89.4629C288.487 89.7272 288.332 90.1055 288.264 90.5977H291.012V90.4404C291.003 90.0029 290.884 89.6657 290.656 89.4287C290.428 89.1872 290.105 89.0664 289.686 89.0664ZM293.773 91.2471C293.773 90.0941 294.031 89.1758 294.546 88.4922C295.065 87.8086 295.774 87.4668 296.672 87.4668C297.392 87.4668 297.987 87.7357 298.456 88.2734V84.5H300.438V95H298.654L298.559 94.2139C298.066 94.8291 297.433 95.1367 296.658 95.1367C295.788 95.1367 295.088 94.7949 294.56 94.1113C294.035 93.4232 293.773 92.4684 293.773 91.2471ZM295.749 91.3906C295.749 92.0833 295.87 92.6143 296.111 92.9834C296.353 93.3525 296.704 93.5371 297.164 93.5371C297.775 93.5371 298.205 93.2796 298.456 92.7646V89.8457C298.21 89.3307 297.784 89.0732 297.178 89.0732C296.225 89.0732 295.749 89.8457 295.749 91.3906ZM306.399 94.248C305.912 94.8405 305.237 95.1367 304.376 95.1367C303.583 95.1367 302.977 94.9089 302.558 94.4531C302.143 93.9974 301.931 93.3298 301.922 92.4502V87.6035H303.897V92.3818C303.897 93.152 304.248 93.5371 304.95 93.5371C305.62 93.5371 306.08 93.3047 306.331 92.8398V87.6035H308.313V95H306.454L306.399 94.248ZM311.889 95H309.906V84.5H311.889V95ZM316.927 95.1367C315.842 95.1367 314.958 94.804 314.274 94.1387C313.595 93.4733 313.256 92.5869 313.256 91.4795V91.2881C313.256 90.5452 313.399 89.8822 313.687 89.2988C313.974 88.7109 314.379 88.2598 314.903 87.9453C315.432 87.6263 316.034 87.4668 316.708 87.4668C317.72 87.4668 318.515 87.7858 319.094 88.4238C319.677 89.0618 319.969 89.9665 319.969 91.1377V91.9443H315.259C315.323 92.4274 315.514 92.8148 315.833 93.1064C316.157 93.3981 316.564 93.5439 317.057 93.5439C317.818 93.5439 318.412 93.2682 318.841 92.7168L319.812 93.8037C319.515 94.223 319.114 94.5511 318.608 94.7881C318.103 95.0205 317.542 95.1367 316.927 95.1367ZM316.701 89.0664C316.309 89.0664 315.99 89.1986 315.744 89.4629C315.503 89.7272 315.348 90.1055 315.279 90.5977H318.027V90.4404C318.018 90.0029 317.9 89.6657 317.672 89.4287C317.444 89.1872 317.12 89.0664 316.701 89.0664Z" fill="#31A078"/>
</g>
<defs>
<filter id="filter0_d" x="-60" y="-30" width="486" height="275" filterUnits="userSpaceOnUse" color-interpolation-filters="sRGB">
<feFlood flood-opacity="0" result="BackgroundImageFix"/>
<feColorMatrix in="SourceAlpha" type="matrix" values="0 0 0 0 0 0 0 0 0 0 0 0 0 0 0 0 0 0 127 0"/>
<feOffset dy="30"/>
<feGaussianBlur stdDeviation="30"/>
<feColorMatrix type="matrix" values="0 0 0 0 0 0 0 0 0 0 0 0 0 0 0 0 0 0 0.0790811 0"/>
<feBlend mode="normal" in2="BackgroundImageFix" result="effect1_dropShadow"/>
<feBlend mode="normal" in="SourceGraphic" in2="effect1_dropShadow" result="shape"/>
</filter>
<clipPath id="clip0">
<rect width="354" height="132" rx="20" fill="white"/>
</clipPath>
<clipPath id="clip1">
<rect width="366" height="155" fill="white"/>
</clipPath>
</defs>
</svg>
